<svg width="62" height="60" viewBox="0 0 62 60" fill="none" xmlns="http://www.w3.org/2000/svg">
<ellipse cx="31.1648" cy="30" rx="30.548" ry="30" fill="black"/>
<path d="M42.2724 30.3355C42.2235 25.0295 46.7285 22.448 46.9345 22.3279C44.3831 18.701 40.4286 18.2055 39.0389 18.166C35.7176 17.8252 32.4959 20.1037 30.804 20.1037C29.0783 20.1037 26.4729 18.1989 23.6649 18.2549C20.0514 18.3092 16.671 20.349 14.817 23.5165C10.9908 29.975 13.8444 39.466 17.5102 44.6864C19.344 47.2431 21.4867 50.0979 24.2913 49.9974C27.0352 49.8871 28.0601 48.2918 31.3713 48.2918C34.6521 48.2918 35.6146 49.9974 38.4749 49.9332C41.4197 49.8871 43.2737 47.365 45.0433 44.7852C47.1624 41.8548 48.0134 38.9688 48.0472 38.8206C47.978 38.7976 42.3282 36.6952 42.2724 30.3355Z" fill="white"/>
<path d="M36.8692 14.7318C38.3449 12.9324 39.3547 10.4843 39.0744 8C36.9384 8.09219 34.2671 9.44052 32.7289 11.2004C31.3679 12.7513 30.1522 15.2932 30.4663 17.6836C32.8657 17.8581 35.3292 16.5032 36.8692 14.7318Z" fill="white"/>
</svg>
