<svg width="24" height="24" viewBox="0 0 24 24" fill="none" xmlns="http://www.w3.org/2000/svg">
<path d="M20.9924 8.98283C20.9924 8.22954 20.4257 7.61248 19.738 7.61248C19.0504 7.61248 18.4836 8.22152 18.4836 8.98283C18.4836 9.59187 18.8539 10.1048 19.3678 10.2811C19.1486 10.5936 18.8917 10.9061 18.6499 11.0584C17.7884 11.5953 15.8237 11.8117 14.5315 10.6657C13.2846 9.56783 13.1259 9.1431 12.6121 8.08529C12.5441 7.94906 12.4836 7.80481 12.4307 7.66857C12.937 7.49227 13.2997 6.97939 13.2997 6.37035C13.2997 5.61706 12.733 5 12.0453 5C11.3577 5 10.7909 5.60904 10.7909 6.37035C10.7909 6.97939 11.1537 7.48426 11.66 7.66056C11.6071 7.80481 11.5466 7.94906 11.4786 8.08529C10.9647 9.1431 10.7985 9.56783 9.55919 10.6657C8.25945 11.8117 6.29471 11.5953 5.44081 11.0584C5.19144 10.9061 4.93451 10.5856 4.70781 10.265C5.19144 10.0727 5.5466 9.57584 5.5466 8.98283C5.5466 8.22954 4.97985 7.61248 4.29219 7.61248C3.60453 7.61248 3 8.22954 3 8.98283C3 9.59989 3.37028 10.1128 3.88413 10.2811C3.82368 10.5695 3.76322 10.8821 3.74055 11.1626C3.59698 12.9416 3.32494 15.8987 4.29219 16.9565C5.25945 18.0143 8.19899 19 12.0227 19C15.8463 19 18.7783 18.0063 19.7532 16.9565C20.728 15.9067 20.4484 12.9496 20.3048 11.1626C20.2821 10.8741 20.2217 10.5535 20.1612 10.265C20.6448 10.0727 21 9.57584 21 8.98283H20.9924Z" fill="white"/>
</svg>
