<?xml version="1.0" encoding="utf-8"?>
<!-- Generator: Adobe Adobe Illustrator 24.2.0, SVG Export Plug-In . SVG Version: 6.00 Build 0)  -->
<svg version="1.1" xmlns="http://www.w3.org/2000/svg" xmlns:xlink="http://www.w3.org/1999/xlink" x="0px" y="0px" width="24px"
	 height="24px" viewBox="0 0 24 24" style="enable-background:new 0 0 24 24;"
	 fill="#FFF"
	 xml:space="preserve">
<style type="text/css">
	.st0{display:none;}
	.st1{fill:none;stroke:#000000;stroke-width:1.5;stroke-linecap:round;stroke-miterlimit:10;}
	.st2{display:inline;}
	.st3{fill:#FFFFFF;}
	.st4{fill:none;stroke:#000000;stroke-width:1.5;stroke-miterlimit:10;}
	.st5{display:inline;fill:#FFFFFF;}
	.st6{fill:none;stroke:#000000;stroke-linecap:round;stroke-miterlimit:10;}
	.st7{display:inline;fill:none;stroke:#FFFFFF;stroke-width:0.5;stroke-linecap:round;stroke-miterlimit:10;}
	.st8{fill:none;stroke:#FFFFFF;stroke-width:0.5;stroke-linecap:round;stroke-miterlimit:10;}
	.st9{display:none;fill:none;stroke:#000000;stroke-width:3.5;stroke-miterlimit:10;}
	.st10{fill:none;stroke:#000000;stroke-width:2;stroke-miterlimit:10;}
	.st11{fill:none;stroke:#000000;stroke-width:1.8;stroke-miterlimit:10;}
	.st12{fill:none;stroke:#000000;stroke-width:1.8;stroke-linecap:round;stroke-miterlimit:10;}
	.st13{fill:#030303;}
	.st14{display:none;fill:none;stroke:#FFFFFF;stroke-width:0.5;stroke-linecap:round;stroke-miterlimit:10;}
	.st15{fill:none;stroke:#000000;stroke-miterlimit:10;}
	.st16{display:inline;fill:none;stroke:#000000;stroke-width:0.5;stroke-linecap:round;stroke-miterlimit:10;}
	.st17{display:none;fill:#CF0000;}
	.st18{display:none;fill:none;stroke:#000000;stroke-width:0.5;stroke-linecap:round;stroke-miterlimit:10;}
	.st19{fill:none;stroke:#0A0A0A;stroke-miterlimit:10;}
	.st20{fill:none;stroke:#000000;stroke-width:0.8;stroke-linecap:round;stroke-miterlimit:10;}
	.st21{fill:none;stroke:#000000;stroke-width:0.5;stroke-miterlimit:10;}
</style>
<g id="Calque_1" class="st0">
</g>
<g id="Flèche">
</g>
<g id="Filtre">
</g>
<g id="Supprimer">
</g>
<g id="Plus">
</g>
<g id="Ajout_image">
</g>
<g id="Chrono">
</g>
<g id="Oeil">
</g>
<g id="Oeil_barre">
</g>
<g id="Cadenas">
</g>
<g id="Cadenas_ouvert">
</g>
<g id="Profil">
</g>
<g id="Étoile">
</g>
<g id="Étoile_pleine">
</g>
<g id="Attention_départ" class="st0">
</g>
<g id="Attention_départ_-_copie">
</g>
<g id="Réveil">
</g>
<g id="Billets">
</g>
<g id="Exporter">
</g>
<g id="Carte">
</g>
<g id="Pin">
</g>
<g id="Dépliant" class="st0">
</g>
<g id="Calque_48">
</g>
<g id="Aide">
</g>
<g id="Commentaire">
</g>
<g id="Roues">
</g>
<g id="Home">
</g>
<g id="Liste">
</g>
<g id="Calendrier">
</g>
<g id="Notification">
</g>
<g id="Explorer">
</g>
<g id="Communauté">
</g>
<g id="Ajout_profil">
</g>
<g id="Crayon">
</g>
<g id="Ajout_calendrier">
</g>
<g id="Monument">
</g>
<g id="Art">
</g>
<g id="De">
</g>
<g id="Urbex" class="st0">
</g>
<g id="Urbex_-_copie">
</g>
<g id="Anecdotes">
</g>
<g id="Spécifique">
</g>
<g id="Découverte">
</g>
<g id="Shop">
</g>
<g id="Sport">
</g>
<g id="Culinaire">
</g>
<g id="Profil_vérifie">
</g>
<g id="Profil_certifié">
</g>
<g id="Couronne">
	<g>
		<g>
			<path d="M11.99,5.19c0,0-0.16,1.2-0.68,2.2c-0.64,1.25-0.85,1.75-2.4,3.04c-1.62,1.35-4.08,1.09-5.15,0.46
				c-0.74-0.44-1.6-2-1.6-2s-0.4,1.19-0.48,2.12c-0.18,2.1-0.52,5.59,0.69,6.83s4.88,2.41,9.66,2.41L11.99,5.19z"/>
			<path d="M11.99,5.19c0,0,0.24,1.2,0.76,2.2c0.64,1.25,0.85,1.75,2.4,3.04c1.62,1.35,4.08,1.09,5.15,0.46c0.74-0.44,1.6-2,1.6-2
				s0.4,1.19,0.48,2.12c0.18,2.1,0.52,5.59-0.69,6.83c-1.21,1.24-4.88,2.41-9.66,2.41L11.99,5.19z"/>
		</g>
		<ellipse cx="2.32" cy="8.44" rx="1.57" ry="1.61"/>
		<ellipse cx="21.68" cy="8.44" rx="1.57" ry="1.61"/>
		<ellipse cx="12.03" cy="5.36" rx="1.57" ry="1.61"/>
	</g>
</g>
<g id="Diplôme">
</g>
</svg>
