<svg width="24" height="24" viewBox="0 0 24 24" fill="none" xmlns="http://www.w3.org/2000/svg">
<path d="M4.45067 13.9082L11.4488 20.4822C11.6449 20.6665 11.743 20.7586 11.8551 20.7925C11.9496 20.8211 12.0504 20.8211 12.1449 20.7925C12.257 20.7586 12.3551 20.6665 12.5512 20.4822L19.5493 13.9082C21.5055 12.0706 21.743 9.0466 20.0978 6.92607L19.7885 6.52734C17.8203 3.99058 13.8696 4.41601 12.4867 7.31365C12.2913 7.72296 11.7087 7.72296 11.5133 7.31365C10.1304 4.41601 6.17972 3.99058 4.21154 6.52735L3.90219 6.92607C2.25695 9.0466 2.4945 12.0706 4.45067 13.9082Z" fill="white" stroke="white"/>
</svg>
