<?xml version="1.0" encoding="utf-8"?>
<!-- Generator: Adobe Adobe Illustrator 24.2.0, SVG Export Plug-In . SVG Version: 6.00 Build 0)  -->
<svg version="1.1" xmlns="http://www.w3.org/2000/svg" xmlns:xlink="http://www.w3.org/1999/xlink" x="0px" y="0px" width="24px"
	 height="24px" viewBox="0 0 24 24" style="enable-background:new 0 0 24 24;"
	 fill="#F1A34F"
	 xml:space="preserve">
<style type="text/css">
	.st0{display:none;}
	.st1{fill:none;stroke:#000000;stroke-width:1.5;stroke-linecap:round;stroke-miterlimit:10;}
	.st2{display:inline;}
	.st3{fill:#FFFFFF;}
	.st4{fill:none;stroke:#000000;stroke-width:1.5;stroke-miterlimit:10;}
	.st5{display:inline;fill:#FFFFFF;}
	.st6{fill:none;stroke:#000000;stroke-linecap:round;stroke-miterlimit:10;}
	.st7{display:inline;fill:none;stroke:#FFFFFF;stroke-width:0.5;stroke-linecap:round;stroke-miterlimit:10;}
	.st8{fill:none;stroke:#FFFFFF;stroke-width:0.5;stroke-linecap:round;stroke-miterlimit:10;}
	.st9{display:none;fill:none;stroke:#000000;stroke-width:3.5;stroke-miterlimit:10;}
	.st10{fill:none;stroke:#000000;stroke-width:2;stroke-miterlimit:10;}
	.st11{fill:none;stroke:#000000;stroke-width:1.8;stroke-miterlimit:10;}
	.st12{fill:none;stroke:#000000;stroke-width:1.8;stroke-linecap:round;stroke-miterlimit:10;}
	.st13{fill:#030303;}
	.st14{display:none;fill:none;stroke:#FFFFFF;stroke-width:0.5;stroke-linecap:round;stroke-miterlimit:10;}
	.st15{fill:none;stroke:#000000;stroke-miterlimit:10;}
	.st16{display:inline;fill:none;stroke:#000000;stroke-width:0.5;stroke-linecap:round;stroke-miterlimit:10;}
	.st17{display:none;fill:#CF0000;}
	.st18{display:none;fill:none;stroke:#000000;stroke-width:0.5;stroke-linecap:round;stroke-miterlimit:10;}
	.st19{fill:none;stroke:#0A0A0A;stroke-miterlimit:10;}
	.st20{fill:none;stroke:#000000;stroke-width:0.8;stroke-linecap:round;stroke-miterlimit:10;}
	.st21{fill:none;stroke:#000000;stroke-width:0.5;stroke-miterlimit:10;}
</style>
<g id="Calque_1" class="st0">
</g>
<g id="Flèche">
</g>
<g id="Filtre">
</g>
<g id="Supprimer">
</g>
<g id="Plus">
</g>
<g id="Ajout_image">
</g>
<g id="Chrono">
</g>
<g id="Oeil">
</g>
<g id="Oeil_barre">
</g>
<g id="Cadenas">
</g>
<g id="Cadenas_ouvert">
</g>
<g id="Profil">
</g>
<g id="Étoile">
</g>
<g id="Étoile_pleine">
</g>
<g id="Attention_départ" class="st0">
</g>
<g id="Attention_départ_-_copie">
</g>
<g id="Réveil">
</g>
<g id="Billets">
</g>
<g id="Exporter">
</g>
<g id="Carte">
	<path class="st0" d="M20.58,19.28l-4.96-8.09l2.24-1.45c0.26-0.17,0.62-0.1,0.8,0.16l4.67,6.81c0.17,0.24,0.11,0.57-0.14,0.74
		L20.58,19.28z"/>
	<path class="st0" d="M4.59,19l-4.14-7.55c-0.12-0.22,0.1-0.47,0.33-0.38l2.7,1.07l4.98,8.35L5.21,19.5
		C4.95,19.42,4.72,19.24,4.59,19z"/>
	<g>
		<g>
			<path d="M22.97,17.75l-2.03-5.91c-0.25-0.72-0.93-1.21-1.69-1.21h-4.38l-2.22,4.04c-0.28,0.51-1.02,0.51-1.3,0l-2.22-4.04H5.1
				c-0.73,0-1.38,0.44-1.66,1.12l-2.38,5.92c-0.47,1.17,0.39,2.45,1.66,2.45h18.56C22.5,20.12,23.37,18.91,22.97,17.75z"/>
		</g>
	</g>
	<g>
		<path d="M11.67,14.05L8.54,8.01h6.94l-3.14,6.03C12.2,14.31,11.81,14.31,11.67,14.05z"/>
		<g>
			<g>
				<path d="M12,2.25c-2.17,0-3.93,1.75-3.93,3.92c0,2.16,1.76,3.92,3.93,3.92s3.93-1.75,3.93-3.92C15.93,4.01,14.17,2.25,12,2.25z
					 M12,8.01c-0.98,0-1.78-0.79-1.78-1.77c0-0.98,0.8-1.77,1.78-1.77c0.98,0,1.78,0.79,1.78,1.77C13.78,7.22,12.98,8.01,12,8.01z"
					/>
			</g>
		</g>
	</g>
</g>
<g id="Pin">
</g>
<g id="Dépliant" class="st0">
</g>
<g id="Calque_48">
</g>
<g id="Aide">
</g>
<g id="Commentaire">
</g>
<g id="Roues">
</g>
<g id="Home">
</g>
<g id="Liste">
</g>
<g id="Calendrier">
</g>
<g id="Notification">
</g>
<g id="Explorer">
</g>
<g id="Communauté">
</g>
<g id="Ajout_profil">
</g>
<g id="Crayon">
</g>
<g id="Ajout_calendrier">
</g>
<g id="Monument">
</g>
<g id="Art">
</g>
<g id="De">
</g>
<g id="Urbex" class="st0">
</g>
<g id="Urbex_-_copie">
</g>
<g id="Anecdotes">
</g>
<g id="Spécifique">
</g>
<g id="Découverte">
</g>
<g id="Shop">
</g>
<g id="Sport">
</g>
<g id="Culinaire">
</g>
<g id="Profil_vérifie">
</g>
<g id="Profil_certifié">
</g>
<g id="Couronne">
</g>
<g id="Diplôme">
</g>
</svg>
