<?xml version="1.0" encoding="utf-8"?>
<!-- Generator: Adobe Adobe Illustrator 24.2.0, SVG Export Plug-In . SVG Version: 6.00 Build 0)  -->
<svg version="1.1" xmlns="http://www.w3.org/2000/svg" xmlns:xlink="http://www.w3.org/1999/xlink" x="0px" y="0px" width="24px"
	 height="24px" viewBox="0 0 24 24" style="enable-background:new 0 0 24 24;"
	 fill="#FFF"
	 xml:space="preserve">
<style type="text/css">
	.st0{display:none;}
	.st6{fill:none;stroke:#FFF;stroke-linecap:round;stroke-miterlimit:10;}
</style>
<g id="Calque_1" class="st0">
</g>
<g id="Flèche">
</g>
<g id="Filtre">
</g>
<g id="Supprimer">
</g>
<g id="Plus">
</g>
<g id="Ajout_image">
</g>
<g id="Chrono">
</g>
<g id="Oeil">
</g>
<g id="Oeil_barre">
</g>
<g id="Cadenas">
</g>
<g id="Cadenas_ouvert">
</g>
<g id="Profil">
</g>
<g id="Étoile">
</g>
<g id="Étoile_pleine">
</g>
<g id="Attention_départ" class="st0">
</g>
<g id="Attention_départ_-_copie">
</g>
<g id="Réveil">
</g>
<g id="Billets">
</g>
<g id="Exporter">
</g>
<g id="Carte">
</g>
<g id="Pin">
	<g>
		<path d="M11.67,19.6L6.59,9.75c0,0,0,0,0,0h10.84c0,0,0,0,0,0l-5.09,9.85C12.2,19.87,11.81,19.87,11.67,19.6z"/>
		<g>
			<g>
				<path d="M12,0.69c-3.39,0-6.14,2.76-6.14,6.16s2.75,6.16,6.14,6.16s6.14-2.76,6.14-6.16S15.39,0.69,12,0.69z M11.46,9.7
					C10.37,9.5,9.48,8.6,9.27,7.52c-0.38-1.97,1.31-3.67,3.27-3.29c1.09,0.21,1.98,1.1,2.18,2.19C15.1,8.38,13.42,10.08,11.46,9.7z"
					/>
			</g>
		</g>
	</g>
	<g>
		<path class="st6" d="M0.93,19.09c0-1.41,2.65-2.63,6.46-3.18"/>
		<path class="st6" d="M16.31,15.87c3.97,0.53,6.76,1.77,6.76,3.22c0,1.93-4.96,3.49-11.08,3.49S0.93,21.02,0.93,19.09"/>
	</g>
</g>
<g id="Dépliant" class="st0">
</g>
<g id="Calque_48">
</g>
<g id="Aide">
</g>
<g id="Commentaire">
</g>
<g id="Roues">
</g>
<g id="Home">
</g>
<g id="Liste">
</g>
<g id="Calendrier">
</g>
<g id="Notification">
</g>
<g id="Explorer">
</g>
<g id="Communauté">
</g>
<g id="Ajout_profil">
</g>
<g id="Crayon">
</g>
<g id="Ajout_calendrier">
</g>
<g id="Monument">
</g>
<g id="Art">
</g>
<g id="De">
</g>
<g id="Urbex" class="st0">
</g>
<g id="Urbex_-_copie">
</g>
<g id="Anecdotes">
</g>
<g id="Spécifique">
</g>
<g id="Découverte">
</g>
<g id="Shop">
</g>
<g id="Sport">
</g>
<g id="Culinaire">
</g>
<g id="Profil_vérifie">
</g>
<g id="Profil_certifié">
</g>
<g id="Couronne">
</g>
<g id="Diplôme">
</g>
</svg>
