<svg width="24" height="24" viewBox="0 0 24 24" fill="none" xmlns="http://www.w3.org/2000/svg">
<path d="M17.0574 7.32792C17.0574 4.44626 14.6191 2.11084 11.6107 2.11084C8.6024 2.11084 6.16406 4.44626 6.16406 7.32792C6.16406 8.23834 6.40948 9.09334 6.83698 9.83751L10.6211 17.3188C11.0328 18.1421 12.2124 18.1421 12.6241 17.3188L16.432 9.78209H16.4241C16.8357 9.04584 17.0653 8.21459 17.0653 7.32001L17.0574 7.32792ZM11.6107 9.17251C10.6211 9.17251 9.82156 8.34917 9.82156 7.32792C9.82156 6.30667 10.6211 5.48334 11.6107 5.48334C12.6003 5.48334 13.3999 6.30667 13.3999 7.32792C13.3999 8.34917 12.6003 9.17251 11.6107 9.17251Z" fill="white"/>
<path d="M11.6109 12.9409C7.50211 12.9409 4.16919 14.7222 4.16919 16.9151C4.16919 19.108 7.50211 20.8893 11.6109 20.8893C15.7196 20.8893 19.0525 19.108 19.0525 16.9151C19.0525 14.7222 15.7196 12.9409 11.6109 12.9409ZM11.6109 19.1238C8.48377 19.1238 5.95044 18.1343 5.95044 16.9151C5.95044 15.6959 8.48377 14.7063 11.6109 14.7063C14.7379 14.7063 17.2713 15.6959 17.2713 16.9151C17.2713 18.1343 14.7379 19.1238 11.6109 19.1238Z" fill="white"/>
</svg>
