<svg width="58" height="58" viewBox="0 0 58 58" fill="none" xmlns="http://www.w3.org/2000/svg">
<circle cx="29" cy="29" r="29" fill="black"/>
<path d="M16.8091 11.7129C16.3913 12.1394 16.1494 12.8034 16.1494 13.6634V44.3373C16.1494 45.1973 16.3913 45.8613 16.8091 46.2878L16.9123 46.3815L34.5417 29.1997V28.794L16.9123 11.6123L16.8091 11.7129Z" fill="url(#paint0_linear_231_517)"/>
<path d="M40.4116 34.9299L34.5416 29.1998V28.7941L40.4187 23.064L40.5503 23.1385L47.5103 26.9996C49.4966 28.0954 49.4966 29.8985 47.5103 31.0012L40.5503 34.8554L40.4116 34.9299Z" fill="url(#paint1_linear_231_517)"/>
<path d="M40.5503 34.8554L34.5416 28.997L16.8091 46.2879C17.4688 46.9641 18.5447 47.0456 19.7681 46.3694L40.5503 34.8554Z" fill="url(#paint2_linear_231_517)"/>
<path d="M40.5503 23.1385L19.7681 11.6245C18.5447 10.9553 17.4688 11.0368 16.8091 11.7129L34.5416 28.9969L40.5503 23.1385Z" fill="url(#paint3_linear_231_517)"/>
<defs>
<linearGradient id="paint0_linear_231_517" x1="32.9764" y1="44.6568" x2="9.7063" y2="20.79" gradientUnits="userSpaceOnUse">
<stop stop-color="#00A0FF"/>
<stop offset="0.0066" stop-color="#00A1FF"/>
<stop offset="0.2601" stop-color="#00BEFF"/>
<stop offset="0.5122" stop-color="#00D2FF"/>
<stop offset="0.7604" stop-color="#00DFFF"/>
<stop offset="1" stop-color="#00E3FF"/>
</linearGradient>
<linearGradient id="paint1_linear_231_517" x1="50.0968" y1="28.995" x2="15.6746" y2="28.995" gradientUnits="userSpaceOnUse">
<stop stop-color="#FFE000"/>
<stop offset="0.4087" stop-color="#FFBD00"/>
<stop offset="0.7754" stop-color="#FFA500"/>
<stop offset="1" stop-color="#FF9C00"/>
</linearGradient>
<linearGradient id="paint2_linear_231_517" x1="37.283" y1="25.8122" x2="5.72684" y2="-6.55303" gradientUnits="userSpaceOnUse">
<stop stop-color="#FF3A44"/>
<stop offset="1" stop-color="#C31162"/>
</linearGradient>
<linearGradient id="paint3_linear_231_517" x1="12.3455" y1="56.493" x2="26.4367" y2="42.0406" gradientUnits="userSpaceOnUse">
<stop stop-color="#32A071"/>
<stop offset="0.0685" stop-color="#2DA771"/>
<stop offset="0.4762" stop-color="#15CF74"/>
<stop offset="0.8009" stop-color="#06E775"/>
<stop offset="1" stop-color="#00F076"/>
</linearGradient>
</defs>
</svg>
