<?xml version="1.0" encoding="utf-8"?>
<!-- Generator: Adobe Adobe Illustrator 24.2.0, SVG Export Plug-In . SVG Version: 6.00 Build 0)  -->
<svg version="1.1" xmlns="http://www.w3.org/2000/svg" xmlns:xlink="http://www.w3.org/1999/xlink" x="0px" y="0px" width="24px"
	 height="24px" viewBox="0 0 24 24"
	 xml:space="preserve">
<style type="text/css">
	.st4{fill:#FFF;stroke:#FFF;stroke-width:1.5;stroke-miterlimit:10;}
</style>
<g id="Calque_1" class="st0">
</g>
<g id="Flèche">
</g>
<g id="Filtre">
</g>
<g id="Supprimer">
</g>
<g id="Plus">
</g>
<g id="Ajout_image">
</g>
<g id="Chrono">
</g>
<g id="Oeil">
</g>
<g id="Oeil_barre">
</g>
<g id="Cadenas">
</g>
<g id="Cadenas_ouvert">
</g>
<g id="Profil">
</g>
<g id="Étoile">
	<path class="st4" d="M13.05,1.66l1.85,6.02c0.14,0.46,0.57,0.78,1.05,0.78h6.08c1.05,0,1.5,1.34,0.67,1.98l-5.02,3.86
		c-0.37,0.28-0.52,0.76-0.38,1.21l1.89,6.18c0.32,1.03-0.87,1.86-1.71,1.21l-4.81-3.7c-0.39-0.3-0.94-0.3-1.33,0l-4.81,3.7
		c-0.85,0.65-2.03-0.18-1.71-1.21l1.89-6.18c0.14-0.44-0.02-0.92-0.38-1.21l-5.02-3.86C0.47,9.81,0.92,8.46,1.97,8.46h6.08
		c0.48,0,0.91-0.32,1.05-0.78l1.85-6.02C11.27,0.62,12.73,0.62,13.05,1.66z"/>
</g>
<g id="Étoile_pleine">
</g>
<g id="Attention_départ" class="st0">
</g>
<g id="Attention_départ_-_copie">
</g>
<g id="Réveil">
</g>
<g id="Billets">
</g>
<g id="Exporter">
</g>
<g id="Carte">
</g>
<g id="Pin">
</g>
<g id="Dépliant" class="st0">
</g>
<g id="Calque_48">
</g>
<g id="Aide">
</g>
<g id="Commentaire">
</g>
<g id="Roues">
</g>
<g id="Home">
</g>
<g id="Liste">
</g>
<g id="Calendrier">
</g>
<g id="Notification">
</g>
<g id="Explorer">
</g>
<g id="Communauté">
</g>
<g id="Ajout_profil">
</g>
<g id="Crayon">
</g>
<g id="Ajout_calendrier">
</g>
<g id="Monument">
</g>
<g id="Art">
</g>
<g id="De">
</g>
<g id="Urbex" class="st0">
</g>
<g id="Urbex_-_copie">
</g>
<g id="Anecdotes">
</g>
<g id="Spécifique">
</g>
<g id="Découverte">
</g>
<g id="Shop">
</g>
<g id="Sport">
</g>
<g id="Culinaire">
</g>
<g id="Profil_vérifie">
</g>
<g id="Profil_certifié">
</g>
<g id="Couronne">
</g>
<g id="Diplôme">
</g>
</svg>
