<svg width="15" height="17" viewBox="0 0 15 17" fill="none" xmlns="http://www.w3.org/2000/svg">
<path d="M14.9997 4.15961C13.8984 4.15958 12.8422 3.72132 12.0634 2.94124C11.2847 2.16117 10.8472 1.10317 10.8472 0H7.88038V11.6369C7.87983 12.1675 7.71258 12.6844 7.40235 13.1144C7.09212 13.5444 6.65463 13.8657 6.15191 14.0328C5.64918 14.1999 5.10671 14.2042 4.60139 14.0452C4.09607 13.8862 3.65352 13.5719 3.33648 13.1469C3.01944 12.7219 2.84398 12.2077 2.83497 11.6772C2.82597 11.1467 2.98388 10.6269 3.28631 10.1913C3.58875 9.75576 4.02037 9.42659 4.52001 9.25047C5.01964 9.07435 5.56194 9.06021 6.07005 9.21006V6.32124C4.99023 6.17539 3.8917 6.36299 2.92112 6.85898C1.95055 7.35498 1.15414 8.13576 0.638244 9.09708C0.122344 10.0584 -0.0884937 11.1545 0.0338859 12.239C0.156265 13.3235 0.606037 14.3448 1.32314 15.1665C2.04025 15.9882 2.99055 16.5712 4.04716 16.8377C5.10378 17.1042 6.2164 17.0414 7.23647 16.6578C8.25654 16.2742 9.1355 15.588 9.75599 14.6909C10.3765 13.7937 10.7089 12.7283 10.709 11.6369L10.7956 5.75482C12.0145 6.65117 13.4878 7.13346 15 7.1312L14.9997 4.15961Z" fill="#000046"/>
</svg>
