<svg width="603" height="338" viewBox="0 0 603 338" fill="none" xmlns="http://www.w3.org/2000/svg">
<path d="M301.506 82.0981C318.388 82.0981 334.414 85.9883 348.752 92.9462C332.688 128.375 301.506 171.311 301.506 171.311C301.506 171.311 270.325 128.375 254.235 92.9462C268.587 86.0014 284.599 82.0981 301.506 82.0981Z" fill="#06B28A"/>
<path d="M358.196 57.8956C358.196 62.3079 357.698 66.6158 356.791 70.7279C356.318 72.7644 355.704 74.8792 355.014 77.0723C354.567 78.456 354.069 79.892 353.545 81.341C341.391 75.5058 328.165 71.6417 314.261 70.1666C317.251 66.9552 319.091 62.6082 319.091 57.8303C319.091 47.896 311.219 39.8546 301.507 39.8546C291.781 39.8546 283.909 47.896 283.909 57.8303C283.909 62.6082 285.762 66.9422 288.74 70.1666C274.836 71.6547 261.596 75.5058 249.456 81.341C248.932 79.892 248.433 78.456 247.986 77.0723C247.296 74.8792 246.695 72.7644 246.21 70.7279C245.302 66.6158 244.817 62.3079 244.817 57.8956C244.817 25.9127 270.197 0 301.494 0C332.791 0 358.196 25.9127 358.196 57.8956Z" fill="#06B28A"/>
<path d="M411.142 181.324C373.212 186.349 321.059 182.329 321.059 182.329C321.059 182.329 339.947 132.514 360.688 99.7214C387.934 117.436 407.091 147.043 411.142 181.324Z" fill="#06B28A"/>
<path d="M445.212 170.75C441.557 173.112 437.723 174.992 433.838 176.389C431.896 177.068 429.825 177.681 427.627 178.23C426.234 178.595 424.803 178.922 423.333 179.235C421.608 165.058 417.531 151.638 411.551 139.341C415.832 140.229 420.407 139.498 424.394 136.926C432.611 131.639 435.065 120.543 429.877 112.149C424.688 103.755 413.838 101.236 405.608 106.536C401.621 109.107 399.001 113.063 397.953 117.397C389.481 106.431 379.27 96.9409 367.743 89.3564C368.65 88.1162 369.583 86.9152 370.503 85.7795C371.934 84.0041 373.378 82.3593 374.81 80.858C377.723 77.8817 381.033 75.1664 384.688 72.8036C411.167 55.7417 446.17 63.8353 462.873 90.8576C479.589 117.932 471.665 153.688 445.212 170.75Z" fill="#06B28A"/>
<path d="M191.45 139.354C185.482 151.651 181.405 165.071 179.667 179.248C178.197 178.935 176.766 178.595 175.373 178.243C173.175 177.694 171.117 177.081 169.188 176.402C165.277 175.005 161.469 173.125 157.814 170.763C131.335 153.701 123.424 117.932 140.127 90.8968C156.843 63.8745 191.858 55.7809 218.312 72.8428C221.967 75.2056 225.277 77.9209 228.203 80.8972C229.622 82.3985 231.053 84.0303 232.497 85.8187C233.417 86.9544 234.35 88.1554 235.258 89.3955C223.731 96.9801 213.52 106.47 205.06 117.436C203.999 113.102 201.392 109.147 197.392 106.575C189.175 101.275 178.312 103.794 173.124 112.188C167.935 120.582 170.389 131.678 178.619 136.965C182.581 139.511 187.168 140.229 191.45 139.354Z" fill="#06B28A"/>
<path d="M281.967 182.329C281.967 182.329 229.788 186.349 191.858 181.324C195.897 147.043 215.066 117.462 242.299 99.7214C263.066 132.514 281.967 182.329 281.967 182.329Z" fill="#06B28A"/>
<path d="M15.9999 229.65H0V217.706H46.6707V229.65H30.7474V270.928H15.9999V229.65Z" fill="#000D46"/>
<path d="M74.9389 256.803H66.9006V270.941H52.1659V217.719H75.9869C90.1976 217.719 99.1305 225.251 99.1305 237.404C99.1305 245.237 95.4117 251.02 88.9325 254.205L100.178 270.928H84.3958L74.9389 256.803ZM75.0923 229.572H66.9006V245.159H75.0923C81.2009 245.159 84.2424 242.274 84.2424 237.404C84.2424 232.47 81.1881 229.572 75.0923 229.572Z" fill="#000D46"/>
<path d="M106.773 247.221V217.719H121.507V246.764C121.507 255.889 125.226 259.544 131.411 259.544C137.507 259.544 141.239 255.889 141.239 246.764V217.719H155.756V247.221C155.756 263.108 146.67 272.011 131.271 272.011C115.872 272.011 106.773 263.108 106.773 247.221Z" fill="#000D46"/>
<path d="M207.539 259.309V270.941H165.711V217.719H206.58V229.35H180.306V238.318H203.449V249.571H180.306V259.309H207.539Z" fill="#000D46"/>
<path d="M316.548 225.643C306.03 225.643 298.209 233.488 298.209 244.389C298.209 255.276 306.043 263.121 316.548 263.121C327.066 263.121 334.899 255.276 334.899 244.389C334.899 233.488 327.066 225.643 316.548 225.643Z" fill="#000D46"/>
<path d="M428.483 226.1H417.148V247.352H428.483C436.982 247.352 441.378 243.383 441.378 236.687C441.378 229.99 436.982 226.1 428.483 226.1Z" fill="#000D46"/>
<path d="M224.906 199.351V290H603V199.351H224.906ZM287.193 226.099H269.89V271.045H260.19V226.099H242.887V217.719H287.193V226.099ZM316.548 271.815C300.369 271.815 288.433 260.158 288.433 244.388C288.433 228.619 300.369 216.962 316.548 216.962C332.739 216.962 344.675 228.541 344.675 244.388C344.675 260.236 332.739 271.815 316.548 271.815ZM397.046 247.809C397.046 263.356 388.471 271.802 374.222 271.802C359.896 271.802 351.321 263.343 351.321 247.809V217.719H361.02V247.43C361.02 258.396 365.864 263.121 374.298 263.121C382.72 263.121 387.5 258.396 387.5 247.43V217.719H397.046V247.809ZM441.595 271.045L430.937 255.432C430.26 255.511 429.595 255.511 428.918 255.511H417.135V271.058H407.435V217.732H428.918C442.643 217.732 451.141 224.898 451.141 236.7C451.141 244.78 447.116 250.72 440.036 253.54L452.036 271.058H441.595V271.045ZM470.055 271.045H460.368V217.719H470.055V271.045ZM498.758 271.815C490.63 271.815 482.502 269.231 478.17 265.419L481.518 257.73C485.697 261.163 492.33 263.591 498.745 263.591C506.873 263.591 510.31 260.615 510.31 256.659C510.31 245.159 479.282 252.691 479.282 232.888C479.282 224.272 485.991 216.962 500.317 216.962C506.579 216.962 513.135 218.645 517.697 221.687L514.643 229.376C509.94 226.556 504.802 225.186 500.24 225.186C492.189 225.186 488.905 228.384 488.905 232.431C488.905 243.788 519.857 236.399 519.857 255.968C519.857 264.492 513.071 271.815 498.758 271.815ZM575.844 271.045L575.767 235.694L558.617 264.949H554.297L537.147 236.151V271.045H527.895V217.719H535.882L556.61 253.07L576.968 217.719H584.955L585.032 271.045H575.844Z" fill="#000D46"/>
<path d="M235.575 324V304.4H239.215V320.92H249.463V324H235.575ZM261.24 324V320.976L261.044 320.332V315.04C261.044 314.013 260.736 313.22 260.12 312.66C259.504 312.081 258.571 311.792 257.32 311.792C256.48 311.792 255.65 311.923 254.828 312.184C254.026 312.445 253.344 312.809 252.784 313.276L251.412 310.728C252.215 310.112 253.167 309.655 254.268 309.356C255.388 309.039 256.546 308.88 257.74 308.88C259.906 308.88 261.576 309.403 262.752 310.448C263.947 311.475 264.544 313.071 264.544 315.236V324H261.24ZM256.536 324.196C255.416 324.196 254.436 324.009 253.596 323.636C252.756 323.244 252.103 322.712 251.636 322.04C251.188 321.349 250.964 320.575 250.964 319.716C250.964 318.876 251.16 318.12 251.552 317.448C251.963 316.776 252.626 316.244 253.54 315.852C254.455 315.46 255.668 315.264 257.18 315.264H261.52V317.588H257.432C256.238 317.588 255.435 317.784 255.024 318.176C254.614 318.549 254.408 319.016 254.408 319.576C254.408 320.211 254.66 320.715 255.164 321.088C255.668 321.461 256.368 321.648 257.264 321.648C258.123 321.648 258.888 321.452 259.56 321.06C260.251 320.668 260.746 320.089 261.044 319.324L261.632 321.424C261.296 322.301 260.69 322.983 259.812 323.468C258.954 323.953 257.862 324.196 256.536 324.196ZM285.063 324.196C283.793 324.196 282.664 323.916 281.675 323.356C280.685 322.796 279.901 321.956 279.323 320.836C278.763 319.697 278.483 318.26 278.483 316.524C278.483 314.769 278.772 313.332 279.351 312.212C279.948 311.092 280.741 310.261 281.731 309.72C282.739 309.16 283.849 308.88 285.063 308.88C286.537 308.88 287.835 309.197 288.955 309.832C290.093 310.467 290.989 311.353 291.643 312.492C292.315 313.631 292.651 314.975 292.651 316.524C292.651 318.073 292.315 319.417 291.643 320.556C290.989 321.695 290.093 322.591 288.955 323.244C287.835 323.879 286.537 324.196 285.063 324.196ZM276.775 324V303.224H280.275V312.52L279.995 316.496L280.107 320.472V324H276.775ZM284.671 321.2C285.511 321.2 286.257 321.013 286.911 320.64C287.583 320.267 288.115 319.725 288.507 319.016C288.899 318.307 289.095 317.476 289.095 316.524C289.095 315.553 288.899 314.723 288.507 314.032C288.115 313.323 287.583 312.781 286.911 312.408C286.257 312.035 285.511 311.848 284.671 311.848C283.831 311.848 283.075 312.035 282.403 312.408C281.731 312.781 281.199 313.323 280.807 314.032C280.415 314.723 280.219 315.553 280.219 316.524C280.219 317.476 280.415 318.307 280.807 319.016C281.199 319.725 281.731 320.267 282.403 320.64C283.075 321.013 283.831 321.2 284.671 321.2ZM302.69 324.196C301.159 324.196 299.796 323.869 298.602 323.216C297.407 322.544 296.464 321.629 295.774 320.472C295.083 319.315 294.738 317.999 294.738 316.524C294.738 315.031 295.083 313.715 295.774 312.576C296.464 311.419 297.407 310.513 298.602 309.86C299.796 309.207 301.159 308.88 302.69 308.88C304.239 308.88 305.611 309.207 306.806 309.86C308.019 310.513 308.962 311.409 309.634 312.548C310.324 313.687 310.67 315.012 310.67 316.524C310.67 317.999 310.324 319.315 309.634 320.472C308.962 321.629 308.019 322.544 306.806 323.216C305.611 323.869 304.239 324.196 302.69 324.196ZM302.69 321.2C303.548 321.2 304.314 321.013 304.986 320.64C305.658 320.267 306.18 319.725 306.554 319.016C306.946 318.307 307.142 317.476 307.142 316.524C307.142 315.553 306.946 314.723 306.554 314.032C306.18 313.323 305.658 312.781 304.986 312.408C304.314 312.035 303.558 311.848 302.718 311.848C301.859 311.848 301.094 312.035 300.422 312.408C299.768 312.781 299.246 313.323 298.854 314.032C298.462 314.723 298.266 315.553 298.266 316.524C298.266 317.476 298.462 318.307 298.854 319.016C299.246 319.725 299.768 320.267 300.422 320.64C301.094 321.013 301.85 321.2 302.69 321.2ZM322.501 308.88C323.695 308.88 324.759 309.113 325.693 309.58C326.645 310.047 327.391 310.765 327.933 311.736C328.474 312.688 328.745 313.92 328.745 315.432V324H325.245V315.88C325.245 314.555 324.927 313.565 324.293 312.912C323.677 312.259 322.809 311.932 321.689 311.932C320.867 311.932 320.139 312.1 319.505 312.436C318.87 312.772 318.375 313.276 318.021 313.948C317.685 314.601 317.517 315.432 317.517 316.44V324H314.017V309.048H317.349V313.08L316.761 311.848C317.283 310.896 318.039 310.168 319.029 309.664C320.037 309.141 321.194 308.88 322.501 308.88ZM341.669 308.88C342.863 308.88 343.927 309.113 344.861 309.58C345.813 310.047 346.559 310.765 347.101 311.736C347.642 312.688 347.913 313.92 347.913 315.432V324H344.413V315.88C344.413 314.555 344.095 313.565 343.461 312.912C342.845 312.259 341.977 311.932 340.857 311.932C340.035 311.932 339.307 312.1 338.673 312.436C338.038 312.772 337.543 313.276 337.189 313.948C336.853 314.601 336.685 315.432 336.685 316.44V324H333.185V309.048H336.517V313.08L335.929 311.848C336.451 310.896 337.207 310.168 338.197 309.664C339.205 309.141 340.362 308.88 341.669 308.88ZM359.408 324.196C357.747 324.196 356.291 323.869 355.04 323.216C353.808 322.544 352.847 321.629 352.156 320.472C351.484 319.315 351.148 317.999 351.148 316.524C351.148 315.031 351.475 313.715 352.128 312.576C352.8 311.419 353.715 310.513 354.872 309.86C356.048 309.207 357.383 308.88 358.876 308.88C360.332 308.88 361.629 309.197 362.768 309.832C363.907 310.467 364.803 311.363 365.456 312.52C366.109 313.677 366.436 315.04 366.436 316.608C366.436 316.757 366.427 316.925 366.408 317.112C366.408 317.299 366.399 317.476 366.38 317.644H353.92V315.32H364.532L363.16 316.048C363.179 315.189 363.001 314.433 362.628 313.78C362.255 313.127 361.741 312.613 361.088 312.24C360.453 311.867 359.716 311.68 358.876 311.68C358.017 311.68 357.261 311.867 356.608 312.24C355.973 312.613 355.469 313.136 355.096 313.808C354.741 314.461 354.564 315.236 354.564 316.132V316.692C354.564 317.588 354.769 318.381 355.18 319.072C355.591 319.763 356.169 320.295 356.916 320.668C357.663 321.041 358.521 321.228 359.492 321.228C360.332 321.228 361.088 321.097 361.76 320.836C362.432 320.575 363.029 320.164 363.552 319.604L365.428 321.76C364.756 322.544 363.907 323.151 362.88 323.58C361.872 323.991 360.715 324.196 359.408 324.196ZM378.012 324V308.208C378.012 306.64 378.47 305.389 379.384 304.456C380.318 303.504 381.643 303.028 383.36 303.028C383.976 303.028 384.555 303.093 385.096 303.224C385.656 303.355 386.123 303.56 386.496 303.84L385.544 306.472C385.283 306.267 384.984 306.117 384.648 306.024C384.312 305.912 383.967 305.856 383.612 305.856C382.884 305.856 382.334 306.061 381.96 306.472C381.587 306.864 381.4 307.461 381.4 308.264V309.944L381.512 311.512V324H378.012ZM375.548 311.96V309.16H385.516V311.96H375.548ZM396.811 324V320.976L396.615 320.332V315.04C396.615 314.013 396.307 313.22 395.691 312.66C395.075 312.081 394.141 311.792 392.891 311.792C392.051 311.792 391.22 311.923 390.399 312.184C389.596 312.445 388.915 312.809 388.355 313.276L386.983 310.728C387.785 310.112 388.737 309.655 389.839 309.356C390.959 309.039 392.116 308.88 393.311 308.88C395.476 308.88 397.147 309.403 398.323 310.448C399.517 311.475 400.115 313.071 400.115 315.236V324H396.811ZM392.107 324.196C390.987 324.196 390.007 324.009 389.167 323.636C388.327 323.244 387.673 322.712 387.207 322.04C386.759 321.349 386.535 320.575 386.535 319.716C386.535 318.876 386.731 318.12 387.123 317.448C387.533 316.776 388.196 316.244 389.111 315.852C390.025 315.46 391.239 315.264 392.751 315.264H397.091V317.588H393.003C391.808 317.588 391.005 317.784 390.595 318.176C390.184 318.549 389.979 319.016 389.979 319.576C389.979 320.211 390.231 320.715 390.735 321.088C391.239 321.461 391.939 321.648 392.835 321.648C393.693 321.648 394.459 321.452 395.131 321.06C395.821 320.668 396.316 320.089 396.615 319.324L397.203 321.424C396.867 322.301 396.26 322.983 395.383 323.468C394.524 323.953 393.432 324.196 392.107 324.196ZM411.494 324.196C409.926 324.196 408.526 323.869 407.294 323.216C406.081 322.544 405.129 321.629 404.438 320.472C403.747 319.315 403.402 317.999 403.402 316.524C403.402 315.031 403.747 313.715 404.438 312.576C405.129 311.419 406.081 310.513 407.294 309.86C408.526 309.207 409.926 308.88 411.494 308.88C412.95 308.88 414.229 309.179 415.33 309.776C416.45 310.355 417.299 311.213 417.878 312.352L415.19 313.92C414.742 313.211 414.191 312.688 413.538 312.352C412.903 312.016 412.213 311.848 411.466 311.848C410.607 311.848 409.833 312.035 409.142 312.408C408.451 312.781 407.91 313.323 407.518 314.032C407.126 314.723 406.93 315.553 406.93 316.524C406.93 317.495 407.126 318.335 407.518 319.044C407.91 319.735 408.451 320.267 409.142 320.64C409.833 321.013 410.607 321.2 411.466 321.2C412.213 321.2 412.903 321.032 413.538 320.696C414.191 320.36 414.742 319.837 415.19 319.128L417.878 320.696C417.299 321.816 416.45 322.684 415.33 323.3C414.229 323.897 412.95 324.196 411.494 324.196ZM410.038 330.384C409.534 330.384 409.067 330.328 408.638 330.216C408.209 330.123 407.817 329.983 407.462 329.796L408.106 328.144C408.405 328.293 408.703 328.405 409.002 328.48C409.319 328.555 409.655 328.592 410.01 328.592C410.551 328.592 410.934 328.499 411.158 328.312C411.382 328.125 411.494 327.883 411.494 327.584C411.494 327.304 411.373 327.08 411.13 326.912C410.906 326.744 410.533 326.66 410.01 326.66H409.142L409.898 323.804H411.802L411.41 325.372C412.231 325.465 412.838 325.727 413.23 326.156C413.641 326.604 413.846 327.127 413.846 327.724C413.846 328.545 413.501 329.189 412.81 329.656C412.119 330.141 411.195 330.384 410.038 330.384ZM427.405 324.196C425.874 324.196 424.511 323.869 423.317 323.216C422.122 322.544 421.179 321.629 420.489 320.472C419.798 319.315 419.453 317.999 419.453 316.524C419.453 315.031 419.798 313.715 420.489 312.576C421.179 311.419 422.122 310.513 423.317 309.86C424.511 309.207 425.874 308.88 427.405 308.88C428.954 308.88 430.326 309.207 431.521 309.86C432.734 310.513 433.677 311.409 434.349 312.548C435.039 313.687 435.385 315.012 435.385 316.524C435.385 317.999 435.039 319.315 434.349 320.472C433.677 321.629 432.734 322.544 431.521 323.216C430.326 323.869 428.954 324.196 427.405 324.196ZM427.405 321.2C428.263 321.2 429.029 321.013 429.701 320.64C430.373 320.267 430.895 319.725 431.269 319.016C431.661 318.307 431.857 317.476 431.857 316.524C431.857 315.553 431.661 314.723 431.269 314.032C430.895 313.323 430.373 312.781 429.701 312.408C429.029 312.035 428.273 311.848 427.433 311.848C426.574 311.848 425.809 312.035 425.137 312.408C424.483 312.781 423.961 313.323 423.569 314.032C423.177 314.723 422.981 315.553 422.981 316.524C422.981 317.476 423.177 318.307 423.569 319.016C423.961 319.725 424.483 320.267 425.137 320.64C425.809 321.013 426.565 321.2 427.405 321.2ZM447.216 308.88C448.41 308.88 449.474 309.113 450.408 309.58C451.36 310.047 452.106 310.765 452.648 311.736C453.189 312.688 453.46 313.92 453.46 315.432V324H449.96V315.88C449.96 314.555 449.642 313.565 449.008 312.912C448.392 312.259 447.524 311.932 446.404 311.932C445.582 311.932 444.854 312.1 444.22 312.436C443.585 312.772 443.09 313.276 442.736 313.948C442.4 314.601 442.232 315.432 442.232 316.44V324H438.732V309.048H442.064V313.08L441.476 311.848C441.998 310.896 442.754 310.168 443.744 309.664C444.752 309.141 445.909 308.88 447.216 308.88ZM471.966 324.196C470.528 324.196 469.231 323.879 468.074 323.244C466.935 322.591 466.039 321.695 465.386 320.556C464.732 319.417 464.406 318.073 464.406 316.524C464.406 314.975 464.732 313.631 465.386 312.492C466.039 311.353 466.935 310.467 468.074 309.832C469.231 309.197 470.528 308.88 471.966 308.88C473.216 308.88 474.336 309.16 475.326 309.72C476.315 310.261 477.099 311.092 477.678 312.212C478.256 313.332 478.546 314.769 478.546 316.524C478.546 318.26 478.266 319.697 477.706 320.836C477.146 321.956 476.371 322.796 475.382 323.356C474.392 323.916 473.254 324.196 471.966 324.196ZM472.386 321.2C473.226 321.2 473.972 321.013 474.626 320.64C475.298 320.267 475.83 319.725 476.222 319.016C476.632 318.307 476.838 317.476 476.838 316.524C476.838 315.553 476.632 314.723 476.222 314.032C475.83 313.323 475.298 312.781 474.626 312.408C473.972 312.035 473.226 311.848 472.386 311.848C471.546 311.848 470.79 312.035 470.118 312.408C469.464 312.781 468.932 313.323 468.522 314.032C468.13 314.723 467.934 315.553 467.934 316.524C467.934 317.476 468.13 318.307 468.522 319.016C468.932 319.725 469.464 320.267 470.118 320.64C470.79 321.013 471.546 321.2 472.386 321.2ZM476.922 324V320.472L477.062 316.496L476.782 312.52V303.224H480.254V324H476.922ZM491.888 324.196C490.227 324.196 488.771 323.869 487.52 323.216C486.288 322.544 485.327 321.629 484.636 320.472C483.964 319.315 483.628 317.999 483.628 316.524C483.628 315.031 483.955 313.715 484.608 312.576C485.28 311.419 486.195 310.513 487.352 309.86C488.528 309.207 489.863 308.88 491.356 308.88C492.812 308.88 494.11 309.197 495.248 309.832C496.387 310.467 497.283 311.363 497.936 312.52C498.59 313.677 498.916 315.04 498.916 316.608C498.916 316.757 498.907 316.925 498.888 317.112C498.888 317.299 498.879 317.476 498.86 317.644H486.4V315.32H497.012L495.64 316.048C495.659 315.189 495.482 314.433 495.108 313.78C494.735 313.127 494.222 312.613 493.568 312.24C492.934 311.867 492.196 311.68 491.356 311.68C490.498 311.68 489.742 311.867 489.088 312.24C488.454 312.613 487.95 313.136 487.576 313.808C487.222 314.461 487.044 315.236 487.044 316.132V316.692C487.044 317.588 487.25 318.381 487.66 319.072C488.071 319.763 488.65 320.295 489.396 320.668C490.143 321.041 491.002 321.228 491.972 321.228C492.812 321.228 493.568 321.097 494.24 320.836C494.912 320.575 495.51 320.164 496.032 319.604L497.908 321.76C497.236 322.544 496.387 323.151 495.36 323.58C494.352 323.991 493.195 324.196 491.888 324.196ZM513.993 324L507.581 309.048H511.221L516.737 322.236H514.945L520.657 309.048H524.017L517.605 324H513.993ZM526.204 324V309.048H529.704V324H526.204ZM527.968 306.584C527.315 306.584 526.774 306.379 526.344 305.968C525.934 305.557 525.728 305.063 525.728 304.484C525.728 303.887 525.934 303.392 526.344 303C526.774 302.589 527.315 302.384 527.968 302.384C528.622 302.384 529.154 302.58 529.564 302.972C529.994 303.345 530.208 303.821 530.208 304.4C530.208 305.016 530.003 305.539 529.592 305.968C529.182 306.379 528.64 306.584 527.968 306.584ZM538.918 324.196C537.667 324.196 536.463 324.037 535.306 323.72C534.167 323.384 533.262 322.983 532.59 322.516L533.934 319.856C534.606 320.285 535.409 320.64 536.342 320.92C537.275 321.2 538.209 321.34 539.142 321.34C540.243 321.34 541.037 321.191 541.522 320.892C542.026 320.593 542.278 320.192 542.278 319.688C542.278 319.277 542.11 318.969 541.774 318.764C541.438 318.54 540.999 318.372 540.458 318.26C539.917 318.148 539.31 318.045 538.638 317.952C537.985 317.859 537.322 317.737 536.65 317.588C535.997 317.42 535.399 317.187 534.858 316.888C534.317 316.571 533.878 316.151 533.542 315.628C533.206 315.105 533.038 314.415 533.038 313.556C533.038 312.604 533.309 311.783 533.85 311.092C534.391 310.383 535.147 309.841 536.118 309.468C537.107 309.076 538.274 308.88 539.618 308.88C540.626 308.88 541.643 308.992 542.67 309.216C543.697 309.44 544.546 309.757 545.218 310.168L543.874 312.828C543.165 312.399 542.446 312.109 541.718 311.96C541.009 311.792 540.299 311.708 539.59 311.708C538.526 311.708 537.733 311.867 537.21 312.184C536.706 312.501 536.454 312.903 536.454 313.388C536.454 313.836 536.622 314.172 536.958 314.396C537.294 314.62 537.733 314.797 538.274 314.928C538.815 315.059 539.413 315.171 540.066 315.264C540.738 315.339 541.401 315.46 542.054 315.628C542.707 315.796 543.305 316.029 543.846 316.328C544.406 316.608 544.854 317.009 545.19 317.532C545.526 318.055 545.694 318.736 545.694 319.576C545.694 320.509 545.414 321.321 544.854 322.012C544.313 322.703 543.538 323.244 542.53 323.636C541.522 324.009 540.318 324.196 538.918 324.196ZM548.708 324V309.048H552.208V324H548.708ZM550.472 306.584C549.819 306.584 549.277 306.379 548.848 305.968C548.437 305.557 548.232 305.063 548.232 304.484C548.232 303.887 548.437 303.392 548.848 303C549.277 302.589 549.819 302.384 550.472 302.384C551.125 302.384 551.657 302.58 552.068 302.972C552.497 303.345 552.712 303.821 552.712 304.4C552.712 305.016 552.507 305.539 552.096 305.968C551.685 306.379 551.144 306.584 550.472 306.584ZM562.43 324.196C560.787 324.196 559.518 323.776 558.622 322.936C557.726 322.077 557.278 320.817 557.278 319.156V305.744H560.778V319.072C560.778 319.781 560.955 320.332 561.31 320.724C561.683 321.116 562.197 321.312 562.85 321.312C563.634 321.312 564.287 321.107 564.81 320.696L565.79 323.188C565.379 323.524 564.875 323.776 564.278 323.944C563.681 324.112 563.065 324.196 562.43 324.196ZM554.814 311.96V309.16H564.782V311.96H554.814ZM575.205 324.196C573.544 324.196 572.088 323.869 570.837 323.216C569.605 322.544 568.644 321.629 567.953 320.472C567.281 319.315 566.945 317.999 566.945 316.524C566.945 315.031 567.272 313.715 567.925 312.576C568.597 311.419 569.512 310.513 570.669 309.86C571.845 309.207 573.18 308.88 574.673 308.88C576.129 308.88 577.426 309.197 578.565 309.832C579.704 310.467 580.6 311.363 581.253 312.52C581.906 313.677 582.233 315.04 582.233 316.608C582.233 316.757 582.224 316.925 582.205 317.112C582.205 317.299 582.196 317.476 582.177 317.644H569.717V315.32H580.329L578.957 316.048C578.976 315.189 578.798 314.433 578.425 313.78C578.052 313.127 577.538 312.613 576.885 312.24C576.25 311.867 575.513 311.68 574.673 311.68C573.814 311.68 573.058 311.867 572.405 312.24C571.77 312.613 571.266 313.136 570.893 313.808C570.538 314.461 570.361 315.236 570.361 316.132V316.692C570.361 317.588 570.566 318.381 570.977 319.072C571.388 319.763 571.966 320.295 572.713 320.668C573.46 321.041 574.318 321.228 575.289 321.228C576.129 321.228 576.885 321.097 577.557 320.836C578.229 320.575 578.826 320.164 579.349 319.604L581.225 321.76C580.553 322.544 579.704 323.151 578.677 323.58C577.669 323.991 576.512 324.196 575.205 324.196ZM585.595 324V309.048H588.927V313.164L588.535 311.96C588.983 310.952 589.683 310.187 590.635 309.664C591.605 309.141 592.809 308.88 594.247 308.88V312.212C594.097 312.175 593.957 312.156 593.827 312.156C593.696 312.137 593.565 312.128 593.435 312.128C592.109 312.128 591.055 312.52 590.271 313.304C589.487 314.069 589.095 315.217 589.095 316.748V324H585.595Z" fill="#06B28A"/>
</svg>
