<svg width="472" height="223" viewBox="0 0 472 223" fill="none" xmlns="http://www.w3.org/2000/svg">
<path d="M235.93 62.89C249.14 62.89 261.68 65.87 272.9 71.2C260.33 98.34 235.93 131.23 235.93 131.23C235.93 131.23 211.53 98.34 198.94 71.2C210.17 65.88 222.7 62.89 235.93 62.89Z" fill="#01B383"/>
<path d="M280.29 44.35C280.29 47.73 279.9 51.03 279.19 54.18C278.82 55.74 278.34 57.36 277.8 59.04C277.45 60.1 277.06 61.2 276.65 62.31C267.14 57.84 256.79 54.88 245.91 53.75C248.25 51.29 249.69 47.96 249.69 44.3C249.69 36.69 243.53 30.53 235.93 30.53C228.32 30.53 222.16 36.69 222.16 44.3C222.16 47.96 223.61 51.28 225.94 53.75C215.06 54.89 204.7 57.84 195.2 62.31C194.79 61.2 194.4 60.1 194.05 59.04C193.51 57.36 193.04 55.74 192.66 54.18C191.95 51.03 191.57 47.73 191.57 44.35C191.57 19.85 211.43 0 235.92 0C260.41 0 280.29 19.85 280.29 44.35Z" fill="#01B383"/>
<path d="M321.72 138.9C292.04 142.75 251.23 139.67 251.23 139.67C251.23 139.67 266.01 101.51 282.24 76.39C303.56 89.96 318.55 112.64 321.72 138.9Z" fill="#008965"/>
<path d="M348.38 130.8C345.52 132.61 342.52 134.05 339.48 135.12C337.96 135.64 336.34 136.11 334.62 136.53C333.53 136.81 332.41 137.06 331.26 137.3C329.91 126.44 326.72 116.16 322.04 106.74C325.39 107.42 328.97 106.86 332.09 104.89C338.52 100.84 340.44 92.34 336.38 85.91C332.32 79.48 323.83 77.55 317.39 81.61C314.27 83.58 312.22 86.61 311.4 89.93C304.77 81.53 296.78 74.26 287.76 68.45C288.47 67.5 289.2 66.58 289.92 65.71C291.04 64.35 292.17 63.09 293.29 61.94C295.57 59.66 298.16 57.58 301.02 55.77C321.74 42.7 349.13 48.9 362.2 69.6C375.28 90.34 369.08 117.73 348.38 130.8Z" fill="#008965"/>
<path d="M149.81 106.75C145.14 116.17 141.95 126.45 140.59 137.31C139.44 137.07 138.32 136.81 137.23 136.54C135.51 136.12 133.9 135.65 132.39 135.13C129.33 134.06 126.35 132.62 123.49 130.81C102.77 117.74 96.58 90.34 109.65 69.63C122.73 48.93 150.13 42.73 170.83 55.8C173.69 57.61 176.28 59.69 178.57 61.97C179.68 63.12 180.8 64.37 181.93 65.74C182.65 66.61 183.38 67.53 184.09 68.48C175.07 74.29 167.08 81.56 160.46 89.96C159.63 86.64 157.59 83.61 154.46 81.64C148.03 77.58 139.53 79.51 135.47 85.94C131.41 92.37 133.33 100.87 139.77 104.92C142.87 106.87 146.46 107.42 149.81 106.75Z" fill="#00E5AD"/>
<path d="M220.64 139.67C220.64 139.67 179.81 142.75 150.13 138.9C153.29 112.64 168.29 89.98 189.6 76.39C205.85 101.51 220.64 139.67 220.64 139.67Z" fill="#00E5AD"/>
<path d="M12.52 175.92H0V166.77H36.52V175.92H24.06V207.54H12.52V175.92Z" fill="#00E5AD"/>
<path d="M58.64 196.72H52.35V207.55H40.82V166.78H59.46C70.58 166.78 77.57 172.55 77.57 181.86C77.57 187.86 74.66 192.29 69.59 194.73L78.39 207.54H66.04L58.64 196.72ZM58.76 175.86H52.35V187.8H58.76C63.54 187.8 65.92 185.59 65.92 181.86C65.92 178.08 63.53 175.86 58.76 175.86Z" fill="#00E5AD"/>
<path d="M83.55 189.38V166.78H95.08V189.03C95.08 196.02 97.99 198.82 102.83 198.82C107.6 198.82 110.52 196.02 110.52 189.03V166.78H121.88V189.38C121.88 201.55 114.77 208.37 102.72 208.37C90.67 208.37 83.55 201.55 83.55 189.38Z" fill="#00E5AD"/>
<path d="M162.4 198.64V207.55H129.67V166.78H161.65V175.69H141.09V182.56H159.2V191.18H141.09V198.64H162.4Z" fill="#00E5AD"/>
<path d="M247.7 172.85C239.47 172.85 233.35 178.86 233.35 187.21C233.35 195.55 239.48 201.56 247.7 201.56C255.93 201.56 262.06 195.55 262.06 187.21C262.06 178.86 255.93 172.85 247.7 172.85Z" fill="#00E5AD"/>
<path d="M335.29 173.2H326.42V189.48H335.29C341.94 189.48 345.38 186.44 345.38 181.31C345.38 176.18 341.94 173.2 335.29 173.2Z" fill="#00E5AD"/>
<path d="M175.99 152.71V222.15H471.85V152.71H175.99ZM224.73 173.2H211.19V207.63H203.6V173.2H190.06V166.78H224.73V173.2ZM247.7 208.22C235.04 208.22 225.7 199.29 225.7 187.21C225.7 175.13 235.04 166.2 247.7 166.2C260.37 166.2 269.71 175.07 269.71 187.21C269.71 199.35 260.37 208.22 247.7 208.22ZM310.69 189.83C310.69 201.74 303.98 208.21 292.83 208.21C281.62 208.21 274.91 201.73 274.91 189.83V166.78H282.5V189.54C282.5 197.94 286.29 201.56 292.89 201.56C299.48 201.56 303.22 197.94 303.22 189.54V166.78H310.69V189.83ZM345.55 207.63L337.21 195.67C336.68 195.73 336.16 195.73 335.63 195.73H326.41V207.64H318.82V166.79H335.63C346.37 166.79 353.02 172.28 353.02 181.32C353.02 187.51 349.87 192.06 344.33 194.22L353.72 207.64H345.55V207.63ZM367.82 207.63H360.24V166.78H367.82V207.63ZM390.28 208.22C383.92 208.22 377.56 206.24 374.17 203.32L376.79 197.43C380.06 200.06 385.25 201.92 390.27 201.92C396.63 201.92 399.32 199.64 399.32 196.61C399.32 187.8 375.04 193.57 375.04 178.4C375.04 171.8 380.29 166.2 391.5 166.2C396.4 166.2 401.53 167.49 405.1 169.82L402.71 175.71C399.03 173.55 395.01 172.5 391.44 172.5C385.14 172.5 382.57 174.95 382.57 178.05C382.57 186.75 406.79 181.09 406.79 196.08C406.79 202.61 401.48 208.22 390.28 208.22ZM450.6 207.63L450.54 180.55L437.12 202.96H433.74L420.32 180.9V207.63H413.08V166.78H419.33L435.55 193.86L451.48 166.78H457.73L457.79 207.63H450.6Z" fill="#00E5AD"/>
</svg>
