<svg width="268" height="141" viewBox="0 0 268 141" fill="none" xmlns="http://www.w3.org/2000/svg">
<path d="M133.93 62.89C147.14 62.89 159.68 65.87 170.9 71.2C158.33 98.34 133.93 131.23 133.93 131.23C133.93 131.23 109.53 98.34 96.94 71.2C108.17 65.88 120.7 62.89 133.93 62.89Z" fill="#01B383"/>
<path d="M178.29 44.35C178.29 47.73 177.9 51.03 177.19 54.18C176.82 55.74 176.34 57.36 175.8 59.04C175.45 60.1 175.06 61.2 174.65 62.31C165.14 57.84 154.79 54.88 143.91 53.75C146.25 51.29 147.69 47.96 147.69 44.3C147.69 36.69 141.53 30.53 133.93 30.53C126.32 30.53 120.16 36.69 120.16 44.3C120.16 47.96 121.61 51.28 123.94 53.75C113.06 54.89 102.7 57.84 93.2 62.31C92.79 61.2 92.4 60.1 92.05 59.04C91.51 57.36 91.04 55.74 90.66 54.18C89.95 51.03 89.57 47.73 89.57 44.35C89.57 19.85 109.43 0 133.92 0C158.41 0 178.29 19.85 178.29 44.35Z" fill="#01B383"/>
<path d="M219.72 138.9C190.04 142.75 149.23 139.67 149.23 139.67C149.23 139.67 164.01 101.51 180.24 76.39C201.56 89.96 216.55 112.64 219.72 138.9Z" fill="#008965"/>
<path d="M246.38 130.8C243.52 132.61 240.52 134.05 237.48 135.12C235.96 135.64 234.34 136.11 232.62 136.53C231.53 136.81 230.41 137.06 229.26 137.3C227.91 126.44 224.72 116.16 220.04 106.74C223.39 107.42 226.97 106.86 230.09 104.89C236.52 100.84 238.44 92.34 234.38 85.91C230.32 79.48 221.83 77.55 215.39 81.61C212.27 83.58 210.22 86.61 209.4 89.93C202.77 81.53 194.78 74.26 185.76 68.45C186.47 67.5 187.2 66.58 187.92 65.71C189.04 64.35 190.17 63.09 191.29 61.94C193.57 59.66 196.16 57.58 199.02 55.77C219.74 42.7 247.13 48.9 260.2 69.6C273.28 90.34 267.08 117.73 246.38 130.8Z" fill="#008965"/>
<path d="M47.81 106.75C43.14 116.17 39.95 126.45 38.59 137.31C37.44 137.07 36.32 136.81 35.23 136.54C33.51 136.12 31.9 135.65 30.39 135.13C27.33 134.06 24.35 132.62 21.49 130.81C0.770008 117.74 -5.41999 90.34 7.65001 69.63C20.73 48.93 48.13 42.73 68.83 55.8C71.69 57.61 74.28 59.69 76.57 61.97C77.68 63.12 78.8 64.37 79.93 65.74C80.65 66.61 81.38 67.53 82.09 68.48C73.07 74.29 65.08 81.56 58.46 89.96C57.63 86.64 55.59 83.61 52.46 81.64C46.03 77.58 37.53 79.51 33.47 85.94C29.41 92.37 31.33 100.87 37.77 104.92C40.87 106.87 44.46 107.42 47.81 106.75Z" fill="#00E5AD"/>
<path d="M118.64 139.67C118.64 139.67 77.81 142.75 48.13 138.9C51.29 112.64 66.29 89.98 87.6 76.39C103.85 101.51 118.64 139.67 118.64 139.67Z" fill="#00E5AD"/>
</svg>
